<svg width="358" height="63" viewBox="0 0 358 63" fill="none" xmlns="http://www.w3.org/2000/svg">
<path d="M80.645 30.7143H76.2998L87.8474 0H92.3117L103.859 30.7143H99.5141L96.5379 22.381H83.6212L80.645 30.7143ZM89.9903 4.88095L84.9903 18.75H95.1689L90.1689 4.88095H89.9903Z" fill="#EA4335"/>
<path d="M117.907 31.4286C116.359 31.4286 114.931 31.0714 113.681 30.4167C112.431 29.7619 111.419 28.8691 110.764 27.7976H110.586L110.764 30.7143V40H106.836V9.7024H110.586V12.6191H110.764C111.479 11.5476 112.431 10.6548 113.681 10C114.931 9.34526 116.359 8.98811 117.907 8.98811C120.705 8.98811 123.026 10.0595 124.931 12.2619C126.895 14.4643 127.907 17.0834 127.907 20.1786C127.907 23.2738 126.895 25.9524 124.931 28.0953C123.026 30.2976 120.705 31.4286 117.907 31.4286ZM117.312 27.7976C119.217 27.7976 120.764 27.0834 122.074 25.6548C123.383 24.2262 123.979 22.4405 123.979 20.2381C123.979 18.0357 123.324 16.25 122.074 14.8214C120.764 13.3929 119.217 12.6786 117.312 12.6786C115.407 12.6786 113.8 13.3929 112.49 14.8214C111.24 16.25 110.586 18.0357 110.586 20.2381C110.586 22.4405 111.24 24.2857 112.49 25.7143C113.74 27.0834 115.348 27.7976 117.312 27.7976Z" fill="#EA4335"/>
<path d="M142.014 31.4286C140.466 31.4286 139.038 31.0714 137.788 30.4167C136.538 29.7619 135.526 28.8691 134.871 27.7976H134.692L134.871 30.7143V40H130.883V9.7024H134.633V12.6191H134.811C135.526 11.5476 136.478 10.6548 137.728 10C138.978 9.34526 140.407 8.98811 141.954 8.98811C144.752 8.98811 147.073 10.0595 148.978 12.2619C150.942 14.4643 151.954 17.0834 151.954 20.1786C151.954 23.2738 150.942 25.9524 148.978 28.0953C147.133 30.2976 144.811 31.4286 142.014 31.4286ZM141.359 27.7976C143.264 27.7976 144.811 27.0834 146.121 25.6548C147.43 24.2262 148.026 22.4405 148.026 20.2381C148.026 18.0357 147.371 16.25 146.121 14.8214C144.811 13.3929 143.264 12.6786 141.359 12.6786C139.454 12.6786 137.847 13.3929 136.538 14.8214C135.288 16.25 134.633 18.0357 134.633 20.2381C134.633 22.4405 135.288 24.2857 136.538 25.7143C137.847 27.0834 139.454 27.7976 141.359 27.7976Z" fill="#EA4335"/>
<path d="M173.502 9.70236L160.347 39.9405H156.3L161.181 29.3452L152.55 9.70236H156.836L163.026 24.8214H163.086L169.157 9.76188H173.502V9.70236Z" fill="#EA4335"/>
<path d="M180.704 30.7143H176.776V0H180.704V13.1548H196.062V0H199.99V30.7143H196.062V16.8452H180.704V30.7143Z" fill="#34A853"/>
<path d="M223.502 30.7143H219.752V27.7976H219.574C218.979 28.8095 218.026 29.7024 216.836 30.3571C215.645 31.0119 214.276 31.369 212.967 31.369C210.407 31.369 208.443 30.6547 207.014 29.1666C205.645 27.6786 204.931 25.5952 204.931 22.9166V9.70236H208.859V22.619C208.919 26.0714 210.645 27.7381 214.038 27.7381C215.586 27.7381 216.895 27.0833 217.967 25.8333C219.038 24.5833 219.574 23.0357 219.574 21.25V9.70236H223.502V30.7143Z" fill="#FBBC05"/>
<path d="M239.395 31.4286C237.848 31.4286 236.419 31.0714 235.169 30.4167C233.919 29.7619 232.907 28.869 232.252 27.7976H232.074V30.7143H228.324V0H232.252V9.70238L232.074 12.619H232.252C232.967 11.5476 233.919 10.6548 235.169 10C236.419 9.34524 237.848 8.9881 239.395 8.9881C242.193 8.9881 244.514 10.0595 246.419 12.2619C248.383 14.4643 249.395 17.0833 249.395 20.1786C249.395 23.2738 248.383 25.9524 246.419 28.0952C244.514 30.2976 242.133 31.4286 239.395 31.4286ZM238.74 27.7976C240.645 27.7976 242.193 27.0833 243.502 25.6548C244.812 24.2262 245.407 22.4405 245.407 20.2381C245.407 18.0357 244.752 16.25 243.502 14.8214C242.193 13.3929 240.645 12.6786 238.74 12.6786C236.836 12.6786 235.228 13.3929 233.919 14.8214C232.669 16.25 232.014 18.0357 232.014 20.2381C232.014 22.4405 232.669 24.2857 233.919 25.7143C235.228 27.0833 236.836 27.7976 238.74 27.7976Z" fill="#4285F4"/>
<path d="M0.899902 29.9C5.8999 29.9 6.6999 27.1 6.6999 24.6C6.6999 22.6 6.3999 20.6 6.0999 18.5C5.7999 16.5 5.4999 14.5 5.4999 12.5C5.4999 5.90001 9.7999 3.10001 15.7999 3.10001H17.2999V7.10001H15.9999C11.7999 7.10001 10.3999 9.40001 10.3999 13.3C10.3999 15 10.5999 16.7 10.8999 18.4C11.1999 20.2 11.3999 21.9 11.3999 23.9C11.4999 28.5 9.4999 30.8 6.2999 31.7V31.8C9.4999 32.6 11.4999 35 11.3999 39.7C11.3999 41.7 11.1999 43.4 10.8999 45.2C10.5999 47 10.3999 48.7 10.3999 50.4C10.3999 54.4 11.9999 56.7 15.9999 56.7H17.2999V60.7H15.7999C9.8999 60.7 5.4999 58.1 5.4999 50.8C5.4999 48.9 5.7999 46.8 6.0999 44.9C6.3999 43 6.6999 41 6.6999 39.1C6.6999 36.9 5.9999 33.8 0.899902 33.8V29.9Z" fill="#4285F4"/>
<path d="M58.3 33.6C53.3 33.6 52.6 36.7 52.6 38.9C52.6 40.8 52.9 42.8 53.2 44.7C53.5 46.6 53.8 48.7 53.8 50.6C53.8 57.9 49.3 60.5 43.5 60.5H42V56.5H43.2C47.2 56.4 48.9 54.3 48.9 50.2C48.9 48.5 48.6 46.8 48.4 45C48.1 43.3 47.8 41.5 47.8 39.5C47.8 34.9 49.8 32.4 52.9 31.6C49.8 30.7 47.8 28.4 47.8 23.8C47.8 21.9 48.1 20.1 48.4 18.3C48.6 16.6 48.9 14.8 48.9 13.2C48.9 9.3 47.4 7.1 43.3 7H42V3H43.4C49.4 3 53.8 5.8 53.8 12.4C53.8 14.4 53.5 16.4 53.2 18.4C52.9 20.4 52.6 22.4 52.6 24.5C52.6 27 53.3 29.8 58.3 29.8V33.6Z" fill="#EA4335"/>
<path d="M21.3998 19.5C23.7998 19.5 25.4998 21.2 25.4998 23.6C25.4998 26 23.7998 27.6 21.3998 27.7C19.0998 27.7 17.2998 26.1 17.2998 23.6C17.2998 21.2 19.0998 19.5 21.3998 19.5Z" fill="#34A853"/>
<path d="M37.7999 19.5C40.1999 19.5 41.9 21.2 41.9 23.6C41.9 26 40.1999 27.6 37.7999 27.7C35.4999 27.7 33.7 26.1 33.7 23.6C33.7 21.2 35.4999 19.5 37.7999 19.5Z" fill="#4285F4"/>
<path d="M29.5998 47.4C24.1998 47.4 21.2998 45.4 17.2998 44.1V47.8C21.0998 49 24.0998 52.3 29.5998 52.3C35.0998 52.3 38.1998 49 41.8998 47.8V44.1C37.9998 45.4 34.8998 47.4 29.5998 47.4Z" fill="#FBBC05"/>
<path d="M80.648 50.158L79.01 54.68H82.342L80.704 50.158H80.648ZM77.596 58.6H76.168L79.948 48.576H81.404L85.184 58.6H83.756L82.79 55.884H78.576L77.596 58.6ZM89.5639 57.648C90.1799 57.648 90.6979 57.4147 91.1179 56.948C91.5379 56.4907 91.7479 55.898 91.7479 55.17C91.7479 54.4513 91.5379 53.8587 91.1179 53.392C90.6979 52.9253 90.1799 52.692 89.5639 52.692C88.9386 52.692 88.4159 52.9253 87.9959 53.392C87.5853 53.8587 87.3799 54.4513 87.3799 55.17C87.3799 55.898 87.5853 56.4953 87.9959 56.962C88.4159 57.4193 88.9386 57.648 89.5639 57.648ZM89.7739 58.824C89.2699 58.824 88.8079 58.7167 88.3879 58.502C87.9773 58.2873 87.6599 58.0027 87.4359 57.648H87.3799L87.4359 58.6V61.624H86.1479V51.74H87.3799V52.692H87.4359C87.6599 52.3373 87.9773 52.0527 88.3879 51.838C88.8079 51.6233 89.2699 51.516 89.7739 51.516C90.6793 51.516 91.4446 51.8707 92.0699 52.58C92.7139 53.2987 93.0359 54.162 93.0359 55.17C93.0359 56.1873 92.7139 57.0507 92.0699 57.76C91.4446 58.4693 90.6793 58.824 89.7739 58.824ZM97.4389 57.648C98.0549 57.648 98.5729 57.4147 98.9929 56.948C99.4129 56.4907 99.6229 55.898 99.6229 55.17C99.6229 54.4513 99.4129 53.8587 98.9929 53.392C98.5729 52.9253 98.0549 52.692 97.4389 52.692C96.8136 52.692 96.2909 52.9253 95.8709 53.392C95.4603 53.8587 95.2549 54.4513 95.2549 55.17C95.2549 55.898 95.4603 56.4953 95.8709 56.962C96.2909 57.4193 96.8136 57.648 97.4389 57.648ZM97.6489 58.824C97.1449 58.824 96.6829 58.7167 96.2629 58.502C95.8523 58.2873 95.5349 58.0027 95.3109 57.648H95.2549L95.3109 58.6V61.624H94.0229V51.74H95.2549V52.692H95.3109C95.5349 52.3373 95.8523 52.0527 96.2629 51.838C96.6829 51.6233 97.1449 51.516 97.6489 51.516C98.5543 51.516 99.3196 51.8707 99.9449 52.58C100.589 53.2987 100.911 54.162 100.911 55.17C100.911 56.1873 100.589 57.0507 99.9449 57.76C99.3196 58.4693 98.5543 58.824 97.6489 58.824ZM107.949 51.74L103.651 61.624H102.321L103.917 58.166L101.089 51.74H102.489L104.533 56.668H104.561L106.549 51.74H107.949ZM110.302 58.6H109.014V48.576H110.302V52.874H115.314V48.576H116.602V58.6H115.314V54.078H110.302V58.6ZM124.271 58.6H123.039V57.648H122.983C122.787 57.984 122.483 58.264 122.073 58.488C121.671 58.712 121.251 58.824 120.813 58.824C119.973 58.824 119.324 58.586 118.867 58.11C118.419 57.6247 118.195 56.9387 118.195 56.052V51.74H119.483V55.968C119.511 57.088 120.075 57.648 121.177 57.648C121.69 57.648 122.119 57.4427 122.465 57.032C122.81 56.612 122.983 56.1127 122.983 55.534V51.74H124.271V58.6ZM129.465 58.824C128.961 58.824 128.499 58.7167 128.079 58.502C127.668 58.2873 127.351 58.0027 127.127 57.648H127.071V58.6H125.839V48.576H127.127V51.74L127.071 52.692H127.127C127.351 52.3373 127.668 52.0527 128.079 51.838C128.499 51.6233 128.961 51.516 129.465 51.516C130.37 51.516 131.135 51.8707 131.761 52.58C132.405 53.2987 132.727 54.162 132.727 55.17C132.727 56.1873 132.405 57.0507 131.761 57.76C131.135 58.4693 130.37 58.824 129.465 58.824ZM129.255 57.648C129.871 57.648 130.389 57.4147 130.809 56.948C131.229 56.4907 131.439 55.898 131.439 55.17C131.439 54.4513 131.229 53.8587 130.809 53.392C130.389 52.9253 129.871 52.692 129.255 52.692C128.629 52.692 128.107 52.9253 127.687 53.392C127.276 53.8587 127.071 54.4513 127.071 55.17C127.071 55.898 127.276 56.4953 127.687 56.962C128.107 57.4193 128.629 57.648 129.255 57.648ZM140.061 49.808V58.6H138.773V49.808H135.973V48.576H142.861V49.808H140.061ZM145.94 58.824C144.932 58.824 144.102 58.4787 143.448 57.788C142.795 57.0973 142.468 56.2247 142.468 55.17C142.468 54.1247 142.786 53.2567 143.42 52.566C144.055 51.866 144.867 51.516 145.856 51.516C146.874 51.516 147.681 51.8473 148.278 52.51C148.885 53.1633 149.188 54.0827 149.188 55.268L149.174 55.408H143.784C143.803 56.08 144.027 56.6213 144.456 57.032C144.886 57.4427 145.399 57.648 145.996 57.648C146.818 57.648 147.462 57.2373 147.928 56.416L149.076 56.976C148.768 57.5547 148.339 58.0073 147.788 58.334C147.247 58.6607 146.631 58.824 145.94 58.824ZM143.882 54.344H147.816C147.779 53.868 147.583 53.476 147.228 53.168C146.883 52.8507 146.416 52.692 145.828 52.692C145.343 52.692 144.923 52.8413 144.568 53.14C144.223 53.4387 143.994 53.84 143.882 54.344ZM153.57 58.824C152.553 58.824 151.708 58.4787 151.036 57.788C150.374 57.0787 150.042 56.206 150.042 55.17C150.042 54.1153 150.374 53.2427 151.036 52.552C151.708 51.8613 152.553 51.516 153.57 51.516C154.27 51.516 154.882 51.6933 155.404 52.048C155.927 52.3933 156.319 52.874 156.58 53.49L155.404 53.98C155.04 53.1213 154.401 52.692 153.486 52.692C152.898 52.692 152.39 52.93 151.96 53.406C151.54 53.882 151.33 54.47 151.33 55.17C151.33 55.87 151.54 56.458 151.96 56.934C152.39 57.41 152.898 57.648 153.486 57.648C154.429 57.648 155.092 57.2187 155.474 56.36L156.622 56.85C156.37 57.466 155.974 57.9513 155.432 58.306C154.9 58.6513 154.28 58.824 153.57 58.824ZM157.749 48.576H159.037V51.74L158.981 52.692H159.037C159.233 52.356 159.532 52.076 159.933 51.852C160.344 51.628 160.768 51.516 161.207 51.516C162.047 51.516 162.691 51.7587 163.139 52.244C163.596 52.72 163.825 53.4013 163.825 54.288V58.6H162.537V54.54C162.537 53.308 161.991 52.692 160.899 52.692C160.376 52.692 159.933 52.9113 159.569 53.35C159.214 53.7793 159.037 54.2833 159.037 54.862V58.6H157.749V48.576ZM165.337 51.74H166.569V52.692H166.625C166.821 52.356 167.119 52.076 167.521 51.852C167.931 51.628 168.356 51.516 168.795 51.516C169.635 51.516 170.279 51.7587 170.727 52.244C171.184 52.72 171.413 53.4013 171.413 54.288V58.6H170.125V54.372C170.097 53.252 169.532 52.692 168.431 52.692C167.917 52.692 167.488 52.902 167.143 53.322C166.797 53.7327 166.625 54.2273 166.625 54.806V58.6H165.337V51.74ZM172.533 55.17C172.533 54.1153 172.864 53.2427 173.527 52.552C174.199 51.8613 175.043 51.516 176.061 51.516C177.078 51.516 177.918 51.8613 178.581 52.552C179.253 53.2427 179.589 54.1153 179.589 55.17C179.589 56.234 179.253 57.1067 178.581 57.788C177.918 58.4787 177.078 58.824 176.061 58.824C175.043 58.824 174.199 58.4787 173.527 57.788C172.864 57.0973 172.533 56.2247 172.533 55.17ZM173.821 55.17C173.821 55.9073 174.035 56.5047 174.465 56.962C174.894 57.4193 175.426 57.648 176.061 57.648C176.695 57.648 177.227 57.4193 177.657 56.962C178.086 56.5047 178.301 55.9073 178.301 55.17C178.301 54.442 178.086 53.8493 177.657 53.392C177.218 52.9253 176.686 52.692 176.061 52.692C175.435 52.692 174.903 52.9253 174.465 53.392C174.035 53.8493 173.821 54.442 173.821 55.17ZM181.978 48.576V58.6H180.69V48.576H181.978ZM183.087 55.17C183.087 54.1153 183.419 53.2427 184.081 52.552C184.753 51.8613 185.598 51.516 186.615 51.516C187.633 51.516 188.473 51.8613 189.135 52.552C189.807 53.2427 190.143 54.1153 190.143 55.17C190.143 56.234 189.807 57.1067 189.135 57.788C188.473 58.4787 187.633 58.824 186.615 58.824C185.598 58.824 184.753 58.4787 184.081 57.788C183.419 57.0973 183.087 56.2247 183.087 55.17ZM184.375 55.17C184.375 55.9073 184.59 56.5047 185.019 56.962C185.449 57.4193 185.981 57.648 186.615 57.648C187.25 57.648 187.782 57.4193 188.211 56.962C188.641 56.5047 188.855 55.9073 188.855 55.17C188.855 54.442 188.641 53.8493 188.211 53.392C187.773 52.9253 187.241 52.692 186.615 52.692C185.99 52.692 185.458 52.9253 185.019 53.392C184.59 53.8493 184.375 54.442 184.375 55.17ZM194.393 57.648C195.028 57.648 195.546 57.4193 195.947 56.962C196.367 56.5047 196.577 55.9073 196.577 55.17C196.577 54.4513 196.367 53.8587 195.947 53.392C195.537 52.9253 195.019 52.692 194.393 52.692C193.777 52.692 193.259 52.9253 192.839 53.392C192.419 53.8587 192.209 54.4513 192.209 55.17C192.209 55.898 192.419 56.4907 192.839 56.948C193.259 57.4147 193.777 57.648 194.393 57.648ZM194.351 61.848C193.969 61.848 193.609 61.7967 193.273 61.694C192.937 61.6007 192.629 61.4653 192.349 61.288C192.079 61.1107 191.845 60.9007 191.649 60.658C191.453 60.4153 191.304 60.1447 191.201 59.846L192.419 59.342C192.559 59.7433 192.802 60.0653 193.147 60.308C193.493 60.5507 193.894 60.672 194.351 60.672C195.051 60.672 195.597 60.462 195.989 60.042C196.381 59.622 196.577 59.0433 196.577 58.306V57.648H196.521C196.279 58.012 195.947 58.3013 195.527 58.516C195.117 58.7213 194.669 58.824 194.183 58.824C193.287 58.824 192.517 58.474 191.873 57.774C191.239 57.0553 190.921 56.1873 190.921 55.17C190.921 54.1527 191.239 53.2893 191.873 52.58C192.517 51.8707 193.287 51.516 194.183 51.516C194.669 51.516 195.117 51.6233 195.527 51.838C195.947 52.0433 196.279 52.328 196.521 52.692H196.577V51.74H197.809V58.306C197.809 59.4073 197.497 60.2707 196.871 60.896C196.237 61.5307 195.397 61.848 194.351 61.848ZM205.512 51.74L201.214 61.624H199.884L201.48 58.166L198.652 51.74H200.052L202.096 56.668H202.124L204.112 51.74H205.512ZM215.417 55.926C215.417 56.8033 215.095 57.508 214.451 58.04C213.797 58.5627 213.004 58.824 212.071 58.824C211.24 58.824 210.507 58.5813 209.873 58.096C209.238 57.6107 208.799 56.948 208.557 56.108L209.789 55.604C209.873 55.9027 209.989 56.1733 210.139 56.416C210.288 56.6587 210.461 56.8687 210.657 57.046C210.862 57.214 211.086 57.3493 211.329 57.452C211.571 57.5453 211.828 57.592 212.099 57.592C212.687 57.592 213.167 57.4427 213.541 57.144C213.914 56.836 214.101 56.43 214.101 55.926C214.101 55.506 213.947 55.1467 213.639 54.848C213.349 54.5587 212.808 54.2787 212.015 54.008C211.212 53.7187 210.713 53.5227 210.517 53.42C209.453 52.8787 208.921 52.0807 208.921 51.026C208.921 50.2887 209.215 49.6587 209.803 49.136C210.4 48.6133 211.133 48.352 212.001 48.352C212.766 48.352 213.429 48.548 213.989 48.94C214.549 49.3227 214.922 49.8033 215.109 50.382L213.905 50.886C213.793 50.5127 213.569 50.2047 213.233 49.962C212.906 49.71 212.505 49.584 212.029 49.584C211.525 49.584 211.1 49.724 210.755 50.004C210.409 50.2653 210.237 50.606 210.237 51.026C210.237 51.3713 210.372 51.67 210.643 51.922C210.941 52.174 211.59 52.4727 212.589 52.818C213.606 53.1633 214.329 53.588 214.759 54.092C215.197 54.5867 215.417 55.198 215.417 55.926ZM216.351 55.17C216.351 54.1153 216.682 53.2427 217.345 52.552C218.017 51.8613 218.862 51.516 219.879 51.516C220.896 51.516 221.736 51.8613 222.399 52.552C223.071 53.2427 223.407 54.1153 223.407 55.17C223.407 56.234 223.071 57.1067 222.399 57.788C221.736 58.4787 220.896 58.824 219.879 58.824C218.862 58.824 218.017 58.4787 217.345 57.788C216.682 57.0973 216.351 56.2247 216.351 55.17ZM217.639 55.17C217.639 55.9073 217.854 56.5047 218.283 56.962C218.712 57.4193 219.244 57.648 219.879 57.648C220.514 57.648 221.046 57.4193 221.475 56.962C221.904 56.5047 222.119 55.9073 222.119 55.17C222.119 54.442 221.904 53.8493 221.475 53.392C221.036 52.9253 220.504 52.692 219.879 52.692C219.254 52.692 218.722 52.9253 218.283 53.392C217.854 53.8493 217.639 54.442 217.639 55.17ZM225.797 48.576V58.6H224.509V48.576H225.797ZM233.386 58.6H232.154V57.648H232.098C231.902 57.984 231.599 58.264 231.188 58.488C230.787 58.712 230.367 58.824 229.928 58.824C229.088 58.824 228.439 58.586 227.982 58.11C227.534 57.6247 227.31 56.9387 227.31 56.052V51.74H228.598V55.968C228.626 57.088 229.191 57.648 230.292 57.648C230.805 57.648 231.235 57.4427 231.58 57.032C231.925 56.612 232.098 56.1127 232.098 55.534V51.74H233.386V58.6ZM237.738 58.712C237.178 58.712 236.712 58.5393 236.338 58.194C235.974 57.8487 235.788 57.368 235.778 56.752V52.916H234.574V51.74H235.778V49.64H237.066V51.74H238.746V52.916H237.066V56.332C237.066 56.7893 237.155 57.102 237.332 57.27C237.51 57.4287 237.71 57.508 237.934 57.508C238.037 57.508 238.135 57.4987 238.228 57.48C238.331 57.452 238.424 57.4193 238.508 57.382L238.914 58.53C238.578 58.6513 238.186 58.712 237.738 58.712ZM241.706 49.374C241.706 49.626 241.617 49.8407 241.44 50.018C241.263 50.1953 241.048 50.284 240.796 50.284C240.544 50.284 240.329 50.1953 240.152 50.018C239.975 49.8407 239.886 49.626 239.886 49.374C239.886 49.122 239.975 48.9073 240.152 48.73C240.329 48.5527 240.544 48.464 240.796 48.464C241.048 48.464 241.263 48.5527 241.44 48.73C241.617 48.9073 241.706 49.122 241.706 49.374ZM241.44 51.74V58.6H240.152V51.74H241.44ZM242.656 55.17C242.656 54.1153 242.987 53.2427 243.65 52.552C244.322 51.8613 245.166 51.516 246.184 51.516C247.201 51.516 248.041 51.8613 248.704 52.552C249.376 53.2427 249.712 54.1153 249.712 55.17C249.712 56.234 249.376 57.1067 248.704 57.788C248.041 58.4787 247.201 58.824 246.184 58.824C245.166 58.824 244.322 58.4787 243.65 57.788C242.987 57.0973 242.656 56.2247 242.656 55.17ZM243.944 55.17C243.944 55.9073 244.158 56.5047 244.588 56.962C245.017 57.4193 245.549 57.648 246.184 57.648C246.818 57.648 247.35 57.4193 247.78 56.962C248.209 56.5047 248.424 55.9073 248.424 55.17C248.424 54.442 248.209 53.8493 247.78 53.392C247.341 52.9253 246.809 52.692 246.184 52.692C245.558 52.692 245.026 52.9253 244.588 53.392C244.158 53.8493 243.944 54.442 243.944 55.17ZM250.745 51.74H251.977V52.692H252.033C252.229 52.356 252.528 52.076 252.929 51.852C253.34 51.628 253.764 51.516 254.203 51.516C255.043 51.516 255.687 51.7587 256.135 52.244C256.592 52.72 256.821 53.4013 256.821 54.288V58.6H255.533V54.372C255.505 53.252 254.94 52.692 253.839 52.692C253.326 52.692 252.896 52.902 252.551 53.322C252.206 53.7327 252.033 54.2273 252.033 54.806V58.6H250.745V51.74ZM263.514 56.696C263.514 57.2933 263.253 57.7973 262.73 58.208C262.208 58.6187 261.55 58.824 260.756 58.824C260.066 58.824 259.459 58.6467 258.936 58.292C258.414 57.928 258.04 57.452 257.816 56.864L258.964 56.374C259.132 56.7847 259.375 57.1067 259.692 57.34C260.019 57.564 260.374 57.676 260.756 57.676C261.167 57.676 261.508 57.5873 261.778 57.41C262.058 57.2327 262.198 57.0227 262.198 56.78C262.198 56.3413 261.862 56.0193 261.19 55.814L260.014 55.52C258.68 55.184 258.012 54.54 258.012 53.588C258.012 52.9627 258.264 52.4633 258.768 52.09C259.282 51.7073 259.935 51.516 260.728 51.516C261.335 51.516 261.881 51.6607 262.366 51.95C262.861 52.2393 263.206 52.6267 263.402 53.112L262.254 53.588C262.124 53.2987 261.909 53.0747 261.61 52.916C261.321 52.748 260.994 52.664 260.63 52.664C260.294 52.664 259.991 52.748 259.72 52.916C259.459 53.084 259.328 53.2893 259.328 53.532C259.328 53.924 259.697 54.204 260.434 54.372L261.47 54.638C262.833 54.974 263.514 55.66 263.514 56.696ZM269.224 54.54V58.6H267.936V48.576H271.352C272.22 48.576 272.957 48.8653 273.564 49.444C274.18 50.0227 274.488 50.7273 274.488 51.558C274.488 52.4073 274.18 53.1167 273.564 53.686C272.966 54.2553 272.229 54.54 271.352 54.54H269.224ZM269.224 49.808V53.308H271.38C271.893 53.308 272.318 53.1353 272.654 52.79C272.999 52.4447 273.172 52.034 273.172 51.558C273.172 51.0913 272.999 50.6853 272.654 50.34C272.318 49.9853 271.893 49.808 271.38 49.808H269.224ZM276.902 58.6H275.614V51.74H276.846V52.86H276.902C277.033 52.496 277.299 52.188 277.7 51.936C278.111 51.6747 278.512 51.544 278.904 51.544C279.277 51.544 279.595 51.6 279.856 51.712L279.464 52.958C279.305 52.8927 279.053 52.86 278.708 52.86C278.223 52.86 277.798 53.056 277.434 53.448C277.079 53.84 276.902 54.2973 276.902 54.82V58.6ZM282.366 49.374C282.366 49.626 282.277 49.8407 282.1 50.018C281.923 50.1953 281.708 50.284 281.456 50.284C281.204 50.284 280.989 50.1953 280.812 50.018C280.635 49.8407 280.546 49.626 280.546 49.374C280.546 49.122 280.635 48.9073 280.812 48.73C280.989 48.5527 281.204 48.464 281.456 48.464C281.708 48.464 281.923 48.5527 282.1 48.73C282.277 48.9073 282.366 49.122 282.366 49.374ZM282.1 51.74V58.6H280.812V51.74H282.1ZM287.108 58.6H285.82L283.048 51.74H284.448L286.464 57.06H286.492L288.536 51.74H289.908L287.108 58.6ZM291.55 56.5C291.55 56.836 291.69 57.116 291.97 57.34C292.259 57.564 292.595 57.676 292.978 57.676C293.519 57.676 294 57.4753 294.42 57.074C294.849 56.6727 295.064 56.2013 295.064 55.66C294.663 55.3427 294.103 55.184 293.384 55.184C292.861 55.184 292.423 55.31 292.068 55.562C291.723 55.814 291.55 56.1267 291.55 56.5ZM293.216 51.516C294.168 51.516 294.919 51.7727 295.47 52.286C296.021 52.79 296.296 53.4853 296.296 54.372V58.6H295.064V57.648H295.008C294.476 58.432 293.767 58.824 292.88 58.824C292.124 58.824 291.489 58.6 290.976 58.152C290.472 57.704 290.22 57.144 290.22 56.472C290.22 55.7627 290.486 55.198 291.018 54.778C291.559 54.358 292.278 54.148 293.174 54.148C293.939 54.148 294.569 54.288 295.064 54.568V54.274C295.064 53.826 294.887 53.448 294.532 53.14C294.177 52.8227 293.762 52.664 293.286 52.664C292.567 52.664 291.998 52.9673 291.578 53.574L290.444 52.86C291.069 51.964 291.993 51.516 293.216 51.516ZM300.328 58.712C299.768 58.712 299.301 58.5393 298.928 58.194C298.564 57.8487 298.377 57.368 298.368 56.752V52.916H297.164V51.74H298.368V49.64H299.656V51.74H301.336V52.916H299.656V56.332C299.656 56.7893 299.745 57.102 299.922 57.27C300.099 57.4287 300.3 57.508 300.524 57.508C300.627 57.508 300.725 57.4987 300.818 57.48C300.921 57.452 301.014 57.4193 301.098 57.382L301.504 58.53C301.168 58.6513 300.776 58.712 300.328 58.712ZM305.573 58.824C304.565 58.824 303.734 58.4787 303.081 57.788C302.428 57.0973 302.101 56.2247 302.101 55.17C302.101 54.1247 302.418 53.2567 303.053 52.566C303.688 51.866 304.5 51.516 305.489 51.516C306.506 51.516 307.314 51.8473 307.911 52.51C308.518 53.1633 308.821 54.0827 308.821 55.268L308.807 55.408H303.417C303.436 56.08 303.66 56.6213 304.089 57.032C304.518 57.4427 305.032 57.648 305.629 57.648C306.45 57.648 307.094 57.2373 307.561 56.416L308.709 56.976C308.401 57.5547 307.972 58.0073 307.421 58.334C306.88 58.6607 306.264 58.824 305.573 58.824ZM303.515 54.344H307.449C307.412 53.868 307.216 53.476 306.861 53.168C306.516 52.8507 306.049 52.692 305.461 52.692C304.976 52.692 304.556 52.8413 304.201 53.14C303.856 53.4387 303.627 53.84 303.515 54.344ZM318.927 58.6H313.299V48.576H314.587V57.368H318.927V58.6ZM321.714 49.374C321.714 49.626 321.625 49.8407 321.448 50.018C321.27 50.1953 321.056 50.284 320.804 50.284C320.552 50.284 320.337 50.1953 320.16 50.018C319.982 49.8407 319.894 49.626 319.894 49.374C319.894 49.122 319.982 48.9073 320.16 48.73C320.337 48.5527 320.552 48.464 320.804 48.464C321.056 48.464 321.27 48.5527 321.448 48.73C321.625 48.9073 321.714 49.122 321.714 49.374ZM321.448 51.74V58.6H320.16V51.74H321.448ZM324.412 58.6H323.124V51.74H324.356V52.692H324.412C324.608 52.356 324.907 52.076 325.308 51.852C325.719 51.628 326.125 51.516 326.526 51.516C327.03 51.516 327.473 51.6327 327.856 51.866C328.239 52.0993 328.519 52.4213 328.696 52.832C329.265 51.9547 330.054 51.516 331.062 51.516C331.855 51.516 332.467 51.7587 332.896 52.244C333.325 52.7293 333.54 53.42 333.54 54.316V58.6H332.252V54.512C332.252 53.868 332.135 53.406 331.902 53.126C331.669 52.8367 331.277 52.692 330.726 52.692C330.231 52.692 329.816 52.902 329.48 53.322C329.144 53.742 328.976 54.2367 328.976 54.806V58.6H327.688V54.512C327.688 53.868 327.571 53.406 327.338 53.126C327.105 52.8367 326.713 52.692 326.162 52.692C325.667 52.692 325.252 52.902 324.916 53.322C324.58 53.742 324.412 54.2367 324.412 54.806V58.6ZM336.712 49.374C336.712 49.626 336.623 49.8407 336.446 50.018C336.268 50.1953 336.054 50.284 335.802 50.284C335.55 50.284 335.335 50.1953 335.158 50.018C334.98 49.8407 334.892 49.626 334.892 49.374C334.892 49.122 334.98 48.9073 335.158 48.73C335.335 48.5527 335.55 48.464 335.802 48.464C336.054 48.464 336.268 48.5527 336.446 48.73C336.623 48.9073 336.712 49.122 336.712 49.374ZM336.446 51.74V58.6H335.158V51.74H336.446ZM340.77 58.712C340.21 58.712 339.743 58.5393 339.37 58.194C339.006 57.8487 338.819 57.368 338.81 56.752V52.916H337.606V51.74H338.81V49.64H340.098V51.74H341.778V52.916H340.098V56.332C340.098 56.7893 340.186 57.102 340.364 57.27C340.541 57.4287 340.742 57.508 340.966 57.508C341.068 57.508 341.166 57.4987 341.26 57.48C341.362 57.452 341.456 57.4193 341.54 57.382L341.946 58.53C341.61 58.6513 341.218 58.712 340.77 58.712ZM346.014 58.824C345.006 58.824 344.176 58.4787 343.522 57.788C342.869 57.0973 342.542 56.2247 342.542 55.17C342.542 54.1247 342.86 53.2567 343.494 52.566C344.129 51.866 344.941 51.516 345.93 51.516C346.948 51.516 347.755 51.8473 348.352 52.51C348.959 53.1633 349.262 54.0827 349.262 55.268L349.248 55.408H343.858C343.877 56.08 344.101 56.6213 344.53 57.032C344.96 57.4427 345.473 57.648 346.07 57.648C346.892 57.648 347.536 57.2373 348.002 56.416L349.15 56.976C348.842 57.5547 348.413 58.0073 347.862 58.334C347.321 58.6607 346.705 58.824 346.014 58.824ZM343.956 54.344H347.89C347.853 53.868 347.657 53.476 347.302 53.168C346.957 52.8507 346.49 52.692 345.902 52.692C345.417 52.692 344.997 52.8413 344.642 53.14C344.297 53.4387 344.068 53.84 343.956 54.344ZM353.589 57.648C354.223 57.648 354.741 57.4193 355.143 56.962C355.563 56.5047 355.773 55.9073 355.773 55.17C355.773 54.4513 355.563 53.8587 355.143 53.392C354.732 52.9253 354.214 52.692 353.589 52.692C352.973 52.692 352.455 52.9253 352.035 53.392C351.615 53.8587 351.405 54.4513 351.405 55.17C351.405 55.898 351.615 56.4907 352.035 56.948C352.455 57.4147 352.973 57.648 353.589 57.648ZM353.379 58.824C352.483 58.824 351.713 58.4693 351.069 57.76C350.434 57.0413 350.117 56.178 350.117 55.17C350.117 54.162 350.434 53.2987 351.069 52.58C351.713 51.8707 352.483 51.516 353.379 51.516C353.883 51.516 354.34 51.6233 354.751 51.838C355.171 52.0527 355.493 52.3373 355.717 52.692H355.773L355.717 51.74V48.576H357.005V58.6H355.773V57.648H355.717C355.493 58.0027 355.171 58.2873 354.751 58.502C354.34 58.7167 353.883 58.824 353.379 58.824Z" fill="#EA4335"/>
</svg>
